<mxfile host="app.diagrams.net" modified="2023-04-03T22:26:48.441Z" agent="Mozilla/5.0 (Windows NT 10.0; Win64; x64) AppleWebKit/537.36 (KHTML, like Gecko) Chrome/111.0.0.0 Safari/537.36" version="21.1.4" etag="9OszUwhHl_6RQVnG1uXI" type="device">
  <diagram id="O9nlfn5qrG3aoeAmOFGt" name="Page-1">
    <mxGraphModel dx="882" dy="596" grid="1" gridSize="10" guides="1" tooltips="1" connect="1" arrows="1" fold="1" page="1" pageScale="1" pageWidth="850" pageHeight="1100" math="0" shadow="0">
      <root>
        <mxCell id="0" />
        <mxCell id="1" parent="0" />
        <mxCell id="TPDWe3cszb34BElRFdbQ-7" style="edgeStyle=orthogonalEdgeStyle;rounded=0;orthogonalLoop=1;jettySize=auto;html=1;exitX=1;exitY=0.5;exitDx=0;exitDy=0;entryX=0;entryY=0.5;entryDx=0;entryDy=0;" edge="1" parent="1" source="TPDWe3cszb34BElRFdbQ-1" target="TPDWe3cszb34BElRFdbQ-2">
          <mxGeometry relative="1" as="geometry" />
        </mxCell>
        <mxCell id="TPDWe3cszb34BElRFdbQ-1" value="User" style="rounded=1;whiteSpace=wrap;html=1;" vertex="1" parent="1">
          <mxGeometry x="80" y="160" width="120" height="60" as="geometry" />
        </mxCell>
        <mxCell id="TPDWe3cszb34BElRFdbQ-9" style="edgeStyle=orthogonalEdgeStyle;rounded=0;orthogonalLoop=1;jettySize=auto;html=1;exitX=0.5;exitY=1;exitDx=0;exitDy=0;entryX=0.5;entryY=0;entryDx=0;entryDy=0;" edge="1" parent="1" source="TPDWe3cszb34BElRFdbQ-2" target="TPDWe3cszb34BElRFdbQ-6">
          <mxGeometry relative="1" as="geometry" />
        </mxCell>
        <mxCell id="TPDWe3cszb34BElRFdbQ-10" style="edgeStyle=orthogonalEdgeStyle;rounded=0;orthogonalLoop=1;jettySize=auto;html=1;exitX=1;exitY=0.5;exitDx=0;exitDy=0;entryX=0;entryY=0.5;entryDx=0;entryDy=0;" edge="1" parent="1" source="TPDWe3cszb34BElRFdbQ-2" target="TPDWe3cszb34BElRFdbQ-4">
          <mxGeometry relative="1" as="geometry" />
        </mxCell>
        <mxCell id="TPDWe3cszb34BElRFdbQ-2" value="Priority queue" style="rounded=1;whiteSpace=wrap;html=1;" vertex="1" parent="1">
          <mxGeometry x="280" y="160" width="120" height="60" as="geometry" />
        </mxCell>
        <mxCell id="TPDWe3cszb34BElRFdbQ-13" style="edgeStyle=orthogonalEdgeStyle;rounded=0;orthogonalLoop=1;jettySize=auto;html=1;exitX=0.5;exitY=1;exitDx=0;exitDy=0;" edge="1" parent="1" source="TPDWe3cszb34BElRFdbQ-3" target="TPDWe3cszb34BElRFdbQ-4">
          <mxGeometry relative="1" as="geometry" />
        </mxCell>
        <mxCell id="TPDWe3cszb34BElRFdbQ-3" value="DNS resolver" style="rounded=1;whiteSpace=wrap;html=1;" vertex="1" parent="1">
          <mxGeometry x="480" y="40" width="120" height="60" as="geometry" />
        </mxCell>
        <mxCell id="TPDWe3cszb34BElRFdbQ-11" style="edgeStyle=orthogonalEdgeStyle;rounded=0;orthogonalLoop=1;jettySize=auto;html=1;exitX=1;exitY=0.5;exitDx=0;exitDy=0;entryX=0;entryY=0.5;entryDx=0;entryDy=0;" edge="1" parent="1" source="TPDWe3cszb34BElRFdbQ-4" target="TPDWe3cszb34BElRFdbQ-5">
          <mxGeometry relative="1" as="geometry" />
        </mxCell>
        <mxCell id="TPDWe3cszb34BElRFdbQ-12" style="edgeStyle=orthogonalEdgeStyle;rounded=0;orthogonalLoop=1;jettySize=auto;html=1;exitX=0.5;exitY=0;exitDx=0;exitDy=0;entryX=0.5;entryY=1;entryDx=0;entryDy=0;" edge="1" parent="1" source="TPDWe3cszb34BElRFdbQ-4" target="TPDWe3cszb34BElRFdbQ-3">
          <mxGeometry relative="1" as="geometry" />
        </mxCell>
        <mxCell id="TPDWe3cszb34BElRFdbQ-4" value="Service host" style="rounded=1;whiteSpace=wrap;html=1;" vertex="1" parent="1">
          <mxGeometry x="480" y="160" width="120" height="60" as="geometry" />
        </mxCell>
        <mxCell id="TPDWe3cszb34BElRFdbQ-17" style="edgeStyle=orthogonalEdgeStyle;rounded=0;orthogonalLoop=1;jettySize=auto;html=1;exitX=0.5;exitY=1;exitDx=0;exitDy=0;entryX=0.5;entryY=0;entryDx=0;entryDy=0;" edge="1" parent="1" source="TPDWe3cszb34BElRFdbQ-5" target="TPDWe3cszb34BElRFdbQ-14">
          <mxGeometry relative="1" as="geometry" />
        </mxCell>
        <mxCell id="TPDWe3cszb34BElRFdbQ-5" value="HTML fetcher" style="rounded=1;whiteSpace=wrap;html=1;" vertex="1" parent="1">
          <mxGeometry x="680" y="160" width="120" height="60" as="geometry" />
        </mxCell>
        <mxCell id="TPDWe3cszb34BElRFdbQ-8" style="edgeStyle=orthogonalEdgeStyle;rounded=0;orthogonalLoop=1;jettySize=auto;html=1;exitX=0.5;exitY=0;exitDx=0;exitDy=0;entryX=0.5;entryY=1;entryDx=0;entryDy=0;" edge="1" parent="1" source="TPDWe3cszb34BElRFdbQ-6" target="TPDWe3cszb34BElRFdbQ-2">
          <mxGeometry relative="1" as="geometry" />
        </mxCell>
        <mxCell id="TPDWe3cszb34BElRFdbQ-6" value="Relational DB" style="rounded=1;whiteSpace=wrap;html=1;" vertex="1" parent="1">
          <mxGeometry x="280" y="280" width="120" height="60" as="geometry" />
        </mxCell>
        <mxCell id="TPDWe3cszb34BElRFdbQ-18" style="edgeStyle=orthogonalEdgeStyle;rounded=0;orthogonalLoop=1;jettySize=auto;html=1;exitX=0.5;exitY=1;exitDx=0;exitDy=0;" edge="1" parent="1" source="TPDWe3cszb34BElRFdbQ-14" target="TPDWe3cszb34BElRFdbQ-15">
          <mxGeometry relative="1" as="geometry" />
        </mxCell>
        <mxCell id="TPDWe3cszb34BElRFdbQ-24" style="edgeStyle=orthogonalEdgeStyle;rounded=0;orthogonalLoop=1;jettySize=auto;html=1;exitX=0;exitY=0.5;exitDx=0;exitDy=0;entryX=0.5;entryY=0;entryDx=0;entryDy=0;" edge="1" parent="1" source="TPDWe3cszb34BElRFdbQ-14" target="TPDWe3cszb34BElRFdbQ-20">
          <mxGeometry relative="1" as="geometry" />
        </mxCell>
        <mxCell id="TPDWe3cszb34BElRFdbQ-14" value="Document" style="rounded=1;whiteSpace=wrap;html=1;" vertex="1" parent="1">
          <mxGeometry x="680" y="280" width="120" height="60" as="geometry" />
        </mxCell>
        <mxCell id="TPDWe3cszb34BElRFdbQ-19" style="edgeStyle=orthogonalEdgeStyle;rounded=0;orthogonalLoop=1;jettySize=auto;html=1;exitX=0.5;exitY=1;exitDx=0;exitDy=0;entryX=0.5;entryY=0;entryDx=0;entryDy=0;" edge="1" parent="1" source="TPDWe3cszb34BElRFdbQ-15" target="TPDWe3cszb34BElRFdbQ-16">
          <mxGeometry relative="1" as="geometry" />
        </mxCell>
        <mxCell id="TPDWe3cszb34BElRFdbQ-26" style="edgeStyle=orthogonalEdgeStyle;rounded=0;orthogonalLoop=1;jettySize=auto;html=1;exitX=0;exitY=0.5;exitDx=0;exitDy=0;entryX=0.5;entryY=1;entryDx=0;entryDy=0;" edge="1" parent="1" source="TPDWe3cszb34BElRFdbQ-15" target="TPDWe3cszb34BElRFdbQ-20">
          <mxGeometry relative="1" as="geometry" />
        </mxCell>
        <mxCell id="TPDWe3cszb34BElRFdbQ-15" value="Document input stream" style="rounded=1;whiteSpace=wrap;html=1;" vertex="1" parent="1">
          <mxGeometry x="680" y="400" width="120" height="60" as="geometry" />
        </mxCell>
        <mxCell id="TPDWe3cszb34BElRFdbQ-16" value="Blob store" style="rounded=1;whiteSpace=wrap;html=1;" vertex="1" parent="1">
          <mxGeometry x="680" y="520" width="120" height="60" as="geometry" />
        </mxCell>
        <mxCell id="TPDWe3cszb34BElRFdbQ-21" style="edgeStyle=orthogonalEdgeStyle;rounded=0;orthogonalLoop=1;jettySize=auto;html=1;exitX=0.5;exitY=0;exitDx=0;exitDy=0;" edge="1" parent="1" source="TPDWe3cszb34BElRFdbQ-20" target="TPDWe3cszb34BElRFdbQ-14">
          <mxGeometry relative="1" as="geometry" />
        </mxCell>
        <mxCell id="TPDWe3cszb34BElRFdbQ-25" style="edgeStyle=orthogonalEdgeStyle;rounded=0;orthogonalLoop=1;jettySize=auto;html=1;exitX=0.5;exitY=1;exitDx=0;exitDy=0;entryX=0;entryY=0.5;entryDx=0;entryDy=0;" edge="1" parent="1" source="TPDWe3cszb34BElRFdbQ-20" target="TPDWe3cszb34BElRFdbQ-15">
          <mxGeometry relative="1" as="geometry" />
        </mxCell>
        <mxCell id="TPDWe3cszb34BElRFdbQ-20" value="Duplicate eliminator" style="rounded=1;whiteSpace=wrap;html=1;" vertex="1" parent="1">
          <mxGeometry x="480" y="330" width="120" height="60" as="geometry" />
        </mxCell>
        <mxCell id="TPDWe3cszb34BElRFdbQ-27" value="Extracted URL" style="text;html=1;strokeColor=none;fillColor=none;align=center;verticalAlign=middle;whiteSpace=wrap;rounded=0;" vertex="1" parent="1">
          <mxGeometry x="540" y="280" width="90" height="30" as="geometry" />
        </mxCell>
      </root>
    </mxGraphModel>
  </diagram>
</mxfile>
